<svg width="18" height="20" viewBox="0 0 18 20" fill="none" xmlns="http://www.w3.org/2000/svg">
<path d="M14.8925 5.6719C14.8666 5.51684 14.7929 5.37679 14.6841 5.27603C14.5754 5.17526 14.4385 5.12014 14.2972 5.1202H12.411V4.8067C12.411 3.7971 12.0517 2.82885 11.412 2.11496C10.7723 1.40106 9.90466 1 9 1C8.09533 1 7.22772 1.40106 6.58803 2.11496C5.94833 2.82885 5.58895 3.7971 5.58895 4.8067V5.1202H3.7025C3.56122 5.12023 3.4244 5.1754 3.31573 5.27615C3.20706 5.37691 3.13339 5.51691 3.10747 5.6719L1.01034 18.2C0.993972 18.2976 0.997069 18.398 1.01941 18.4941C1.04175 18.5901 1.08278 18.6795 1.13959 18.7559C1.19639 18.8323 1.26758 18.8937 1.34808 18.9359C1.42858 18.9781 1.51643 19 1.60537 19H16.3946C16.4836 19 16.5714 18.9781 16.6519 18.9359C16.7324 18.8937 16.8036 18.8323 16.8604 18.7559C16.9172 18.6795 16.9583 18.5901 16.9806 18.4941C17.0029 18.398 17.006 18.2976 16.9897 18.2L14.8925 5.6719ZM6.79977 4.8067C6.79977 4.15548 7.03158 3.53093 7.4442 3.07045C7.85683 2.60996 8.41646 2.35126 9 2.35126C9.58354 2.35126 10.1432 2.60996 10.5558 3.07045C10.9684 3.53093 11.2002 4.15548 11.2002 4.8067V5.1202H6.79977V4.8067ZM2.33428 17.6487L4.20551 6.47146H13.7945L15.6657 17.6487H2.33428Z" fill="white" stroke="#1E1E1E" stroke-width="0.2"/>
</svg>
